<svg xmlns="http://www.w3.org/2000/svg" width="352" height="86" viewBox="0 0 352 86" shape-rendering="crispEdges"><rect width="352" height="86" fill="#ffffff"/><g fill="#000000"><rect x="20" y="0" width="4" height="70"/><rect x="26" y="0" width="2" height="70"/><rect x="32" y="0" width="2" height="70"/><rect x="42" y="0" width="2" height="70"/><rect x="46" y="0" width="2" height="70"/><rect x="54" y="0" width="4" height="70"/><rect x="64" y="0" width="4" height="70"/><rect x="70" y="0" width="6" height="70"/><rect x="82" y="0" width="2" height="70"/><rect x="86" y="0" width="2" height="70"/><rect x="94" y="0" width="4" height="70"/><rect x="100" y="0" width="2" height="70"/><rect x="108" y="0" width="2" height="70"/><rect x="116" y="0" width="4" height="70"/><rect x="122" y="0" width="6" height="70"/><rect x="130" y="0" width="4" height="70"/><rect x="140" y="0" width="2" height="70"/><rect x="148" y="0" width="2" height="70"/><rect x="152" y="0" width="2" height="70"/><rect x="160" y="0" width="4" height="70"/><rect x="166" y="0" width="2" height="70"/><rect x="174" y="0" width="4" height="70"/><rect x="184" y="0" width="2" height="70"/><rect x="188" y="0" width="6" height="70"/><rect x="196" y="0" width="2" height="70"/><rect x="202" y="0" width="4" height="70"/><rect x="208" y="0" width="6" height="70"/><rect x="218" y="0" width="2" height="70"/><rect x="222" y="0" width="6" height="70"/><rect x="230" y="0" width="8" height="70"/><rect x="240" y="0" width="4" height="70"/><rect x="248" y="0" width="2" height="70"/><rect x="254" y="0" width="6" height="70"/><rect x="262" y="0" width="6" height="70"/><rect x="272" y="0" width="2" height="70"/><rect x="278" y="0" width="4" height="70"/><rect x="284" y="0" width="2" height="70"/><rect x="292" y="0" width="2" height="70"/><rect x="298" y="0" width="4" height="70"/><rect x="306" y="0" width="4" height="70"/><rect x="316" y="0" width="6" height="70"/><rect x="324" y="0" width="2" height="70"/><rect x="328" y="0" width="4" height="70"/></g><text x="176" y="81.52" fill="#000000" font-family="ui-monospace, monospace" font-size="13.1" letter-spacing="2" text-anchor="middle">ATELIER-2026</text></svg>