<svg xmlns="http://www.w3.org/2000/svg" width="180" height="180" viewBox="0 0 26 26" shape-rendering="crispEdges"><rect width="26" height="26" fill="transparent"/><g fill="currentColor"><rect x="2" y="2" width="1" height="1"/><rect x="4" y="2" width="1" height="1"/><rect x="6" y="2" width="1" height="1"/><rect x="8" y="2" width="1" height="1"/><rect x="10" y="2" width="1" height="1"/><rect x="12" y="2" width="1" height="1"/><rect x="14" y="2" width="1" height="1"/><rect x="16" y="2" width="1" height="1"/><rect x="18" y="2" width="1" height="1"/><rect x="20" y="2" width="1" height="1"/><rect x="22" y="2" width="1" height="1"/><rect x="2" y="3" width="1" height="1"/><rect x="4" y="3" width="3" height="1"/><rect x="10" y="3" width="1" height="1"/><rect x="12" y="3" width="4" height="1"/><rect x="18" y="3" width="1" height="1"/><rect x="20" y="3" width="2" height="1"/><rect x="23" y="3" width="1" height="1"/><rect x="2" y="4" width="1" height="1"/><rect x="4" y="4" width="1" height="1"/><rect x="7" y="4" width="2" height="1"/><rect x="10" y="4" width="1" height="1"/><rect x="12" y="4" width="1" height="1"/><rect x="15" y="4" width="1" height="1"/><rect x="19" y="4" width="2" height="1"/><rect x="2" y="5" width="2" height="1"/><rect x="5" y="5" width="1" height="1"/><rect x="8" y="5" width="1" height="1"/><rect x="10" y="5" width="1" height="1"/><rect x="18" y="5" width="1" height="1"/><rect x="21" y="5" width="1" height="1"/><rect x="23" y="5" width="1" height="1"/><rect x="2" y="6" width="1" height="1"/><rect x="5" y="6" width="1" height="1"/><rect x="7" y="6" width="1" height="1"/><rect x="11" y="6" width="1" height="1"/><rect x="13" y="6" width="3" height="1"/><rect x="17" y="6" width="3" height="1"/><rect x="21" y="6" width="1" height="1"/><rect x="2" y="7" width="1" height="1"/><rect x="9" y="7" width="1" height="1"/><rect x="11" y="7" width="1" height="1"/><rect x="13" y="7" width="1" height="1"/><rect x="17" y="7" width="1" height="1"/><rect x="20" y="7" width="1" height="1"/><rect x="22" y="7" width="2" height="1"/><rect x="2" y="8" width="4" height="1"/><rect x="7" y="8" width="1" height="1"/><rect x="9" y="8" width="1" height="1"/><rect x="13" y="8" width="3" height="1"/><rect x="17" y="8" width="1" height="1"/><rect x="19" y="8" width="1" height="1"/><rect x="22" y="8" width="1" height="1"/><rect x="2" y="9" width="2" height="1"/><rect x="5" y="9" width="1" height="1"/><rect x="7" y="9" width="2" height="1"/><rect x="10" y="9" width="1" height="1"/><rect x="12" y="9" width="2" height="1"/><rect x="15" y="9" width="1" height="1"/><rect x="17" y="9" width="1" height="1"/><rect x="19" y="9" width="1" height="1"/><rect x="22" y="9" width="2" height="1"/><rect x="2" y="10" width="3" height="1"/><rect x="6" y="10" width="2" height="1"/><rect x="9" y="10" width="3" height="1"/><rect x="14" y="10" width="1" height="1"/><rect x="16" y="10" width="1" height="1"/><rect x="18" y="10" width="3" height="1"/><rect x="2" y="11" width="2" height="1"/><rect x="5" y="11" width="1" height="1"/><rect x="9" y="11" width="1" height="1"/><rect x="11" y="11" width="4" height="1"/><rect x="16" y="11" width="1" height="1"/><rect x="18" y="11" width="3" height="1"/><rect x="22" y="11" width="2" height="1"/><rect x="2" y="12" width="1" height="1"/><rect x="4" y="12" width="1" height="1"/><rect x="7" y="12" width="1" height="1"/><rect x="10" y="12" width="4" height="1"/><rect x="15" y="12" width="1" height="1"/><rect x="19" y="12" width="2" height="1"/><rect x="2" y="13" width="3" height="1"/><rect x="10" y="13" width="3" height="1"/><rect x="17" y="13" width="1" height="1"/><rect x="19" y="13" width="1" height="1"/><rect x="23" y="13" width="1" height="1"/><rect x="2" y="14" width="2" height="1"/><rect x="5" y="14" width="1" height="1"/><rect x="7" y="14" width="1" height="1"/><rect x="9" y="14" width="1" height="1"/><rect x="11" y="14" width="2" height="1"/><rect x="14" y="14" width="1" height="1"/><rect x="16" y="14" width="1" height="1"/><rect x="18" y="14" width="2" height="1"/><rect x="21" y="14" width="1" height="1"/><rect x="2" y="15" width="1" height="1"/><rect x="5" y="15" width="3" height="1"/><rect x="13" y="15" width="3" height="1"/><rect x="18" y="15" width="1" height="1"/><rect x="22" y="15" width="2" height="1"/><rect x="2" y="16" width="2" height="1"/><rect x="5" y="16" width="1" height="1"/><rect x="12" y="16" width="2" height="1"/><rect x="15" y="16" width="2" height="1"/><rect x="18" y="16" width="1" height="1"/><rect x="20" y="16" width="1" height="1"/><rect x="22" y="16" width="1" height="1"/><rect x="2" y="17" width="1" height="1"/><rect x="4" y="17" width="1" height="1"/><rect x="6" y="17" width="1" height="1"/><rect x="9" y="17" width="4" height="1"/><rect x="15" y="17" width="3" height="1"/><rect x="20" y="17" width="1" height="1"/><rect x="23" y="17" width="1" height="1"/><rect x="2" y="18" width="1" height="1"/><rect x="4" y="18" width="1" height="1"/><rect x="8" y="18" width="2" height="1"/><rect x="11" y="18" width="2" height="1"/><rect x="15" y="18" width="1" height="1"/><rect x="18" y="18" width="4" height="1"/><rect x="2" y="19" width="1" height="1"/><rect x="4" y="19" width="2" height="1"/><rect x="7" y="19" width="1" height="1"/><rect x="9" y="19" width="2" height="1"/><rect x="14" y="19" width="1" height="1"/><rect x="16" y="19" width="1" height="1"/><rect x="19" y="19" width="5" height="1"/><rect x="2" y="20" width="1" height="1"/><rect x="6" y="20" width="5" height="1"/><rect x="12" y="20" width="1" height="1"/><rect x="15" y="20" width="1" height="1"/><rect x="17" y="20" width="4" height="1"/><rect x="2" y="21" width="1" height="1"/><rect x="4" y="21" width="1" height="1"/><rect x="7" y="21" width="2" height="1"/><rect x="10" y="21" width="1" height="1"/><rect x="14" y="21" width="3" height="1"/><rect x="18" y="21" width="1" height="1"/><rect x="20" y="21" width="1" height="1"/><rect x="23" y="21" width="1" height="1"/><rect x="2" y="22" width="1" height="1"/><rect x="4" y="22" width="1" height="1"/><rect x="6" y="22" width="2" height="1"/><rect x="13" y="22" width="1" height="1"/><rect x="15" y="22" width="1" height="1"/><rect x="19" y="22" width="1" height="1"/><rect x="21" y="22" width="2" height="1"/><rect x="2" y="23" width="22" height="1"/></g></svg>