<svg xmlns="http://www.w3.org/2000/svg" width="238" height="76" viewBox="0 0 238 76" shape-rendering="crispEdges"><rect width="238" height="76" fill="#ffffff"/><g fill="#16161a"><rect x="20" y="0" width="2" height="60"/><rect x="24" y="0" width="2" height="60"/><rect x="28" y="0" width="6" height="60"/><rect x="36" y="0" width="2" height="60"/><rect x="44" y="0" width="2" height="60"/><rect x="48" y="0" width="2" height="60"/><rect x="52" y="0" width="6" height="60"/><rect x="64" y="0" width="6" height="60"/><rect x="72" y="0" width="6" height="60"/><rect x="80" y="0" width="2" height="60"/><rect x="88" y="0" width="2" height="60"/><rect x="92" y="0" width="2" height="60"/><rect x="100" y="0" width="6" height="60"/><rect x="108" y="0" width="2" height="60"/><rect x="116" y="0" width="6" height="60"/><rect x="128" y="0" width="2" height="60"/><rect x="132" y="0" width="2" height="60"/><rect x="136" y="0" width="2" height="60"/><rect x="144" y="0" width="2" height="60"/><rect x="148" y="0" width="2" height="60"/><rect x="152" y="0" width="6" height="60"/><rect x="164" y="0" width="6" height="60"/><rect x="172" y="0" width="2" height="60"/><rect x="176" y="0" width="6" height="60"/><rect x="184" y="0" width="2" height="60"/><rect x="192" y="0" width="6" height="60"/><rect x="204" y="0" width="2" height="60"/><rect x="208" y="0" width="6" height="60"/><rect x="216" y="0" width="2" height="60"/></g><text x="119" y="71.52" fill="#16161a" font-family="ui-monospace, monospace" font-size="13.1" letter-spacing="2" text-anchor="middle">1234567890</text></svg>