<svg xmlns="http://www.w3.org/2000/svg" width="180" height="180" viewBox="0 0 33 33" shape-rendering="crispEdges"><rect width="33" height="33" fill="#ffffff"/><g fill="#16161a"><rect x="4" y="4" width="7" height="1"/><rect x="12" y="4" width="1" height="1"/><rect x="17" y="4" width="4" height="1"/><rect x="22" y="4" width="7" height="1"/><rect x="4" y="5" width="1" height="1"/><rect x="10" y="5" width="1" height="1"/><rect x="12" y="5" width="1" height="1"/><rect x="15" y="5" width="2" height="1"/><rect x="22" y="5" width="1" height="1"/><rect x="28" y="5" width="1" height="1"/><rect x="4" y="6" width="1" height="1"/><rect x="6" y="6" width="3" height="1"/><rect x="10" y="6" width="1" height="1"/><rect x="12" y="6" width="2" height="1"/><rect x="16" y="6" width="1" height="1"/><rect x="18" y="6" width="1" height="1"/><rect x="22" y="6" width="1" height="1"/><rect x="24" y="6" width="3" height="1"/><rect x="28" y="6" width="1" height="1"/><rect x="4" y="7" width="1" height="1"/><rect x="6" y="7" width="3" height="1"/><rect x="10" y="7" width="1" height="1"/><rect x="12" y="7" width="3" height="1"/><rect x="16" y="7" width="2" height="1"/><rect x="19" y="7" width="1" height="1"/><rect x="22" y="7" width="1" height="1"/><rect x="24" y="7" width="3" height="1"/><rect x="28" y="7" width="1" height="1"/><rect x="4" y="8" width="1" height="1"/><rect x="6" y="8" width="3" height="1"/><rect x="10" y="8" width="1" height="1"/><rect x="13" y="8" width="2" height="1"/><rect x="16" y="8" width="1" height="1"/><rect x="18" y="8" width="3" height="1"/><rect x="22" y="8" width="1" height="1"/><rect x="24" y="8" width="3" height="1"/><rect x="28" y="8" width="1" height="1"/><rect x="4" y="9" width="1" height="1"/><rect x="10" y="9" width="1" height="1"/><rect x="12" y="9" width="3" height="1"/><rect x="20" y="9" width="1" height="1"/><rect x="22" y="9" width="1" height="1"/><rect x="28" y="9" width="1" height="1"/><rect x="4" y="10" width="7" height="1"/><rect x="12" y="10" width="1" height="1"/><rect x="14" y="10" width="1" height="1"/><rect x="16" y="10" width="1" height="1"/><rect x="18" y="10" width="1" height="1"/><rect x="20" y="10" width="1" height="1"/><rect x="22" y="10" width="7" height="1"/><rect x="14" y="11" width="2" height="1"/><rect x="20" y="11" width="1" height="1"/><rect x="4" y="12" width="2" height="1"/><rect x="8" y="12" width="3" height="1"/><rect x="14" y="12" width="1" height="1"/><rect x="16" y="12" width="1" height="1"/><rect x="20" y="12" width="1" height="1"/><rect x="23" y="12" width="1" height="1"/><rect x="25" y="12" width="4" height="1"/><rect x="4" y="13" width="1" height="1"/><rect x="6" y="13" width="2" height="1"/><rect x="11" y="13" width="2" height="1"/><rect x="17" y="13" width="5" height="1"/><rect x="24" y="13" width="2" height="1"/><rect x="27" y="13" width="1" height="1"/><rect x="6" y="14" width="9" height="1"/><rect x="17" y="14" width="1" height="1"/><rect x="19" y="14" width="2" height="1"/><rect x="23" y="14" width="1" height="1"/><rect x="25" y="14" width="2" height="1"/><rect x="6" y="15" width="2" height="1"/><rect x="9" y="15" width="1" height="1"/><rect x="12" y="15" width="2" height="1"/><rect x="16" y="15" width="1" height="1"/><rect x="18" y="15" width="1" height="1"/><rect x="20" y="15" width="2" height="1"/><rect x="26" y="15" width="2" height="1"/><rect x="5" y="16" width="2" height="1"/><rect x="8" y="16" width="1" height="1"/><rect x="10" y="16" width="1" height="1"/><rect x="15" y="16" width="1" height="1"/><rect x="20" y="16" width="4" height="1"/><rect x="25" y="16" width="4" height="1"/><rect x="4" y="17" width="5" height="1"/><rect x="13" y="17" width="2" height="1"/><rect x="16" y="17" width="1" height="1"/><rect x="18" y="17" width="3" height="1"/><rect x="24" y="17" width="1" height="1"/><rect x="27" y="17" width="1" height="1"/><rect x="7" y="18" width="7" height="1"/><rect x="15" y="18" width="5" height="1"/><rect x="23" y="18" width="4" height="1"/><rect x="7" y="19" width="2" height="1"/><rect x="12" y="19" width="1" height="1"/><rect x="14" y="19" width="2" height="1"/><rect x="18" y="19" width="2" height="1"/><rect x="23" y="19" width="2" height="1"/><rect x="26" y="19" width="2" height="1"/><rect x="4" y="20" width="3" height="1"/><rect x="10" y="20" width="1" height="1"/><rect x="12" y="20" width="1" height="1"/><rect x="16" y="20" width="1" height="1"/><rect x="20" y="20" width="7" height="1"/><rect x="12" y="21" width="3" height="1"/><rect x="18" y="21" width="1" height="1"/><rect x="20" y="21" width="1" height="1"/><rect x="24" y="21" width="1" height="1"/><rect x="4" y="22" width="7" height="1"/><rect x="13" y="22" width="1" height="1"/><rect x="18" y="22" width="1" height="1"/><rect x="20" y="22" width="1" height="1"/><rect x="22" y="22" width="1" height="1"/><rect x="24" y="22" width="1" height="1"/><rect x="4" y="23" width="1" height="1"/><rect x="10" y="23" width="1" height="1"/><rect x="12" y="23" width="1" height="1"/><rect x="14" y="23" width="1" height="1"/><rect x="16" y="23" width="1" height="1"/><rect x="18" y="23" width="1" height="1"/><rect x="20" y="23" width="1" height="1"/><rect x="24" y="23" width="5" height="1"/><rect x="4" y="24" width="1" height="1"/><rect x="6" y="24" width="3" height="1"/><rect x="10" y="24" width="1" height="1"/><rect x="12" y="24" width="1" height="1"/><rect x="14" y="24" width="2" height="1"/><rect x="17" y="24" width="2" height="1"/><rect x="20" y="24" width="9" height="1"/><rect x="4" y="25" width="1" height="1"/><rect x="6" y="25" width="3" height="1"/><rect x="10" y="25" width="1" height="1"/><rect x="13" y="25" width="1" height="1"/><rect x="16" y="25" width="1" height="1"/><rect x="18" y="25" width="2" height="1"/><rect x="21" y="25" width="3" height="1"/><rect x="26" y="25" width="3" height="1"/><rect x="4" y="26" width="1" height="1"/><rect x="6" y="26" width="3" height="1"/><rect x="10" y="26" width="1" height="1"/><rect x="13" y="26" width="7" height="1"/><rect x="21" y="26" width="2" height="1"/><rect x="25" y="26" width="1" height="1"/><rect x="27" y="26" width="1" height="1"/><rect x="4" y="27" width="1" height="1"/><rect x="10" y="27" width="1" height="1"/><rect x="12" y="27" width="1" height="1"/><rect x="14" y="27" width="2" height="1"/><rect x="17" y="27" width="1" height="1"/><rect x="19" y="27" width="1" height="1"/><rect x="22" y="27" width="6" height="1"/><rect x="4" y="28" width="7" height="1"/><rect x="12" y="28" width="3" height="1"/><rect x="16" y="28" width="2" height="1"/><rect x="19" y="28" width="1" height="1"/><rect x="22" y="28" width="1" height="1"/><rect x="26" y="28" width="3" height="1"/></g></svg>